<svg width="24" height="24" viewBox="0 0 24 24" fill="none" xmlns="http://www.w3.org/2000/svg">
<path d="M8.75002 13.5C9.48164 13.5 10.1919 13.7468 10.7658 14.2005C11.3398 14.6542 11.744 15.2882 11.913 16H21.25C21.44 16.0001 21.623 16.0722 21.7618 16.202C21.9007 16.3317 21.9851 16.5093 21.998 16.6989C22.011 16.8885 21.9515 17.0759 21.8316 17.2233C21.7117 17.3707 21.5403 17.4671 21.352 17.493L21.25 17.5H11.913C11.744 18.2118 11.3398 18.8457 10.7658 19.2993C10.1918 19.753 9.4816 19.9997 8.75002 19.9997C8.01843 19.9997 7.30823 19.753 6.73426 19.2993C6.16028 18.8457 5.75608 18.2118 5.58702 17.5H2.75002C2.55999 17.4999 2.37707 17.4278 2.23822 17.298C2.09937 17.1683 2.01494 16.9907 2.00199 16.8011C1.98904 16.6115 2.04853 16.4241 2.16845 16.2767C2.28837 16.1293 2.45977 16.0329 2.64802 16.007L2.75002 16H5.58702C5.75602 15.2882 6.1602 14.6542 6.73418 14.2005C7.30816 13.7468 8.01839 13.5 8.75002 13.5ZM15.25 4C15.9816 4.00002 16.6919 4.24681 17.2658 4.70048C17.8398 5.15415 18.244 5.78817 18.413 6.5H21.25C21.44 6.50006 21.623 6.57224 21.7618 6.70197C21.9007 6.8317 21.9851 7.0093 21.998 7.19888C22.011 7.38846 21.9515 7.57589 21.8316 7.7233C21.7117 7.87071 21.5403 7.9671 21.352 7.993L21.25 8H18.413C18.2439 8.71178 17.8398 9.34573 17.2658 9.79934C16.6918 10.253 15.9816 10.4997 15.25 10.4997C14.5184 10.4997 13.8082 10.253 13.2343 9.79934C12.6603 9.34573 12.2561 8.71178 12.087 8H2.75002C2.55999 7.99994 2.37707 7.92776 2.23822 7.79803C2.09937 7.6683 2.01494 7.4907 2.00199 7.30112C1.98904 7.11154 2.04853 6.92411 2.16845 6.7767C2.28837 6.62929 2.45977 6.5329 2.64802 6.507L2.75002 6.5H12.087C12.256 5.78817 12.6602 5.15415 13.2342 4.70048C13.8082 4.24681 14.5184 4.00002 15.25 4Z" fill="#51D3B7"/>
</svg>
