<svg width="24" height="25" viewBox="0 0 24 25" fill="none" xmlns="http://www.w3.org/2000/svg">
<g clip-path="url(#clip0_170_1149)">
<path d="M22.7066 18.1045L20.3759 15.7738C19.9541 15.3522 19.4258 15.053 18.8473 14.9082C18.2688 14.7633 17.6618 14.7781 17.0911 14.9511C16.5204 15.1241 16.0073 15.4488 15.6066 15.8905C15.2059 16.3322 14.9327 16.8743 14.8159 17.4592C10.9726 16.7405 7.23457 13.0178 7.00191 9.69049C7.65529 9.57029 8.25661 9.25405 8.72591 8.78382C9.34381 8.16584 9.69094 7.32772 9.69094 6.45382C9.69094 5.57992 9.34381 4.7418 8.72591 4.12382L6.39591 1.79315C5.77793 1.17525 4.93981 0.828125 4.06591 0.828125C3.19201 0.828125 2.35389 1.17525 1.73591 1.79315C-5.25476 8.78382 15.7159 29.7545 22.7066 22.7638C23.3241 22.1458 23.671 21.3078 23.671 20.4342C23.671 19.5605 23.3241 18.7225 22.7066 18.1045Z" fill="#08366A"/>
</g>
<defs>
<clipPath id="clip0_170_1149">
<rect width="24" height="24" fill="white" transform="translate(0 0.5)"/>
</clipPath>
</defs>
</svg>
