<svg width="32" height="32" viewBox="0 0 32 32" fill="none" xmlns="http://www.w3.org/2000/svg">
<g clip-path="url(#clip0_474_795)">
<path fill-rule="evenodd" clip-rule="evenodd" d="M26.3693 5.90662C26.6988 5.76794 27.0594 5.72011 27.4137 5.76811C27.7679 5.81611 28.1029 5.95818 28.3836 6.17953C28.6643 6.40089 28.8805 6.69344 29.0098 7.02673C29.1391 7.36002 29.1767 7.72187 29.1187 8.07462L26.0946 26.4173C25.8013 28.1866 23.86 29.2013 22.2373 28.32C20.88 27.5826 18.864 26.4466 17.0507 25.2613C16.144 24.668 13.3667 22.768 13.708 21.416C14.0013 20.26 18.668 15.916 21.3347 13.3333C22.3813 12.3186 21.904 11.7333 20.668 12.6666C17.5973 14.984 12.6707 18.508 11.0413 19.5C9.60399 20.3746 8.85465 20.524 7.95865 20.3746C6.32399 20.1026 4.80799 19.6813 3.57065 19.168C1.89865 18.4746 1.97999 16.176 3.56932 15.5066L26.3693 5.90662Z" fill="#51D3B7"/>
</g>
<defs>
<clipPath id="clip0_474_795">
<rect width="32" height="32" fill="white"/>
</clipPath>
</defs>
</svg>
