<svg width="22" height="23" viewBox="0 0 22 23" fill="none" xmlns="http://www.w3.org/2000/svg">
<path d="M11 1.89307C9.16435 1.89307 7.36991 2.4374 5.84362 3.45724C4.31732 4.47708 3.12772 5.92661 2.42525 7.62254C1.72277 9.31846 1.53897 11.1846 1.89709 12.985C2.25521 14.7854 3.13916 16.4391 4.43717 17.7372C5.73518 19.0352 7.38894 19.9191 9.18932 20.2772C10.9897 20.6353 12.8559 20.4515 14.5518 19.7491C16.2477 19.0466 17.6972 17.857 18.7171 16.3307C19.7369 14.8044 20.2813 13.01 20.2813 11.1743C20.2785 8.71361 19.2998 6.35448 17.5598 4.6145C15.8198 2.87452 13.4607 1.8958 11 1.89307ZM11 18.3931C9.57227 18.3931 8.1766 17.9697 6.98948 17.1765C5.80236 16.3833 4.87712 15.2559 4.33075 13.9368C3.78438 12.6178 3.64142 11.1663 3.91996 9.76601C4.1985 8.36571 4.88602 7.07945 5.89558 6.06989C6.90514 5.06033 8.1914 4.37281 9.5917 4.09427C10.992 3.81574 12.4434 3.95869 13.7625 4.50506C15.0816 5.05143 16.209 5.97668 17.0022 7.16379C17.7954 8.35091 18.2188 9.74658 18.2188 11.1743C18.2167 13.0882 17.4555 14.9231 16.1022 16.2765C14.7488 17.6298 12.9139 18.391 11 18.3931ZM9.96875 11.5181V7.04932C9.96875 6.77581 10.0774 6.51351 10.2708 6.32011C10.4642 6.12672 10.7265 6.01807 11 6.01807C11.2735 6.01807 11.5358 6.12672 11.7292 6.32011C11.9226 6.51351 12.0313 6.77581 12.0313 7.04932V11.5181C12.0313 11.7916 11.9226 12.0539 11.7292 12.2473C11.5358 12.4407 11.2735 12.5493 11 12.5493C10.7265 12.5493 10.4642 12.4407 10.2708 12.2473C10.0774 12.0539 9.96875 11.7916 9.96875 11.5181ZM12.375 14.9556C12.375 15.2275 12.2944 15.4934 12.1433 15.7195C11.9922 15.9456 11.7774 16.1218 11.5262 16.2259C11.2749 16.33 10.9985 16.3572 10.7318 16.3041C10.465 16.2511 10.22 16.1201 10.0277 15.9278C9.83543 15.7355 9.70448 15.4905 9.65142 15.2238C9.59837 14.9571 9.6256 14.6806 9.72967 14.4294C9.83374 14.1781 10.01 13.9634 10.2361 13.8123C10.4622 13.6612 10.7281 13.5806 11 13.5806C11.3647 13.5806 11.7144 13.7254 11.9723 13.9833C12.2301 14.2412 12.375 14.5909 12.375 14.9556Z" fill="#A11F34"/>
</svg>
