<svg width="48" height="48" viewBox="0 0 48 48" fill="none" xmlns="http://www.w3.org/2000/svg">
<path d="M43.84 13.24C43.6371 12.7513 43.2487 12.3629 42.76 12.16C42.5196 12.0575 42.2614 12.0032 42 12H32C31.4696 12 30.9609 12.2107 30.5858 12.5858C30.2107 12.9609 30 13.4696 30 14C30 14.5304 30.2107 15.0391 30.5858 15.4142C30.9609 15.7893 31.4696 16 32 16H37.18L26 27.18L19.42 20.58C19.2341 20.3925 19.0129 20.2438 18.7692 20.1422C18.5254 20.0407 18.264 19.9884 18 19.9884C17.736 19.9884 17.4746 20.0407 17.2308 20.1422C16.9871 20.2438 16.7659 20.3925 16.58 20.58L4.58 32.58C4.39254 32.7659 4.24375 32.9871 4.14222 33.2308C4.04068 33.4746 3.9884 33.736 3.9884 34C3.9884 34.264 4.04068 34.5254 4.14222 34.7692C4.24375 35.0129 4.39254 35.2341 4.58 35.42C4.76593 35.6075 4.98713 35.7563 5.23085 35.8578C5.47457 35.9593 5.73598 36.0116 6 36.0116C6.26402 36.0116 6.52543 35.9593 6.76915 35.8578C7.01287 35.7563 7.23407 35.6075 7.42 35.42L18 24.82L24.58 31.42C24.7659 31.6075 24.9871 31.7562 25.2308 31.8578C25.4746 31.9593 25.736 32.0116 26 32.0116C26.264 32.0116 26.5254 31.9593 26.7692 31.8578C27.0129 31.7562 27.2341 31.6075 27.42 31.42L40 18.82V24C40 24.5304 40.2107 25.0391 40.5858 25.4142C40.9609 25.7893 41.4696 26 42 26C42.5304 26 43.0391 25.7893 43.4142 25.4142C43.7893 25.0391 44 24.5304 44 24V14C43.9968 13.7386 43.9425 13.4804 43.84 13.24Z" fill="#51D3B7"/>
</svg>
