<svg width="22" height="22" viewBox="0 0 22 22" fill="none" xmlns="http://www.w3.org/2000/svg">
<path d="M9.16673 12.4666L14.5751 7.05824C14.7431 6.89018 14.957 6.80615 15.2167 6.80615C15.4765 6.80615 15.6903 6.89018 15.8584 7.05824C16.0265 7.22629 16.1105 7.44018 16.1105 7.6999C16.1105 7.95962 16.0265 8.17351 15.8584 8.34157L9.8084 14.3916C9.62506 14.5749 9.41118 14.6666 9.16673 14.6666C8.92229 14.6666 8.7084 14.5749 8.52507 14.3916L6.14173 12.0082C5.97368 11.8402 5.88965 11.6263 5.88965 11.3666C5.88965 11.1068 5.97368 10.893 6.14173 10.7249C6.30979 10.5568 6.52368 10.4728 6.7834 10.4728C7.04312 10.4728 7.25701 10.5568 7.42507 10.7249L9.16673 12.4666Z" fill="#51D3B7"/>
</svg>
