<svg width="12" height="9" viewBox="0 0 12 9" fill="none" xmlns="http://www.w3.org/2000/svg">
<path d="M4.16673 6.46657L9.57506 1.05824C9.74312 0.89018 9.95701 0.806152 10.2167 0.806152C10.4765 0.806152 10.6903 0.89018 10.8584 1.05824C11.0265 1.22629 11.1105 1.44018 11.1105 1.6999C11.1105 1.95962 11.0265 2.17351 10.8584 2.34157L4.8084 8.39157C4.62506 8.5749 4.41118 8.66657 4.16673 8.66657C3.92229 8.66657 3.7084 8.5749 3.52507 8.39157L1.14173 6.00824C0.973676 5.84018 0.889648 5.62629 0.889648 5.36657C0.889648 5.10685 0.973676 4.89296 1.14173 4.7249C1.30979 4.55685 1.52368 4.47282 1.7834 4.47282C2.04312 4.47282 2.25701 4.55685 2.42507 4.7249L4.16673 6.46657Z" fill="#51D3B7"/>
</svg>
