<svg width="48" height="49" viewBox="0 0 48 49" fill="none" xmlns="http://www.w3.org/2000/svg">
<path d="M43.75 21.15C43.85 21.7167 43.9167 22.2747 43.95 22.824C43.9833 23.3747 44 23.9333 44 24.5C44 27.2667 43.4747 29.8667 42.424 32.3C41.3747 34.7333 39.95 36.85 38.15 38.65C36.35 40.45 34.2333 41.8747 31.8 42.924C29.3667 43.9747 26.7667 44.5 24 44.5C21.2333 44.5 18.6333 43.9747 16.2 42.924C13.7667 41.8747 11.65 40.45 9.85 38.65C8.05 36.85 6.62533 34.7333 5.576 32.3C4.52533 29.8667 4 27.2667 4 24.5C4 21.7333 4.52533 19.1333 5.576 16.7C6.62533 14.2667 8.05 12.15 9.85 10.35C11.65 8.55 13.7667 7.12467 16.2 6.074C18.6333 5.02467 21.2333 4.5 24 4.5C25.7 4.5 27.342 4.708 28.926 5.124C30.5087 5.54133 32 6.11667 33.4 6.85C33.9 7.11667 34.2087 7.52467 34.326 8.074C34.442 8.62467 34.3167 9.13333 33.95 9.6C33.6167 10.0333 33.1833 10.3167 32.65 10.45C32.1167 10.5833 31.6167 10.5167 31.15 10.25C30.0833 9.68333 28.942 9.25 27.726 8.95C26.5087 8.65 25.2667 8.5 24 8.5C19.5667 8.5 15.792 10.058 12.676 13.174C9.55867 16.2913 8 20.0667 8 24.5C8 28.9333 9.55867 32.7087 12.676 35.826C15.792 38.942 19.5667 40.5 24 40.5C28.4333 40.5 32.2087 38.942 35.326 35.826C38.442 32.7087 40 28.9333 40 24.5C40 24.0667 39.9833 23.6413 39.95 23.224C39.9167 22.808 39.8667 22.3833 39.8 21.95C39.7333 21.4833 39.8087 21.05 40.026 20.65C40.242 20.25 40.55 19.9333 40.95 19.7C41.5167 19.3667 42.092 19.358 42.676 19.674C43.2587 19.9913 43.6167 20.4833 43.75 21.15ZM19.8 32.3L14.05 26.55C13.6833 26.1833 13.5087 25.7247 13.526 25.174C13.542 24.6247 13.7333 24.1667 14.1 23.8C14.4667 23.4333 14.9333 23.25 15.5 23.25C16.0667 23.25 16.5333 23.4333 16.9 23.8L21.2 28.1L39.85 9.4C40.2167 9.03333 40.6753 8.858 41.226 8.874C41.7753 8.89133 42.2333 9.08333 42.6 9.45C42.9667 9.81667 43.15 10.2833 43.15 10.85C43.15 11.4167 42.9667 11.8833 42.6 12.25L22.6 32.3C22.2333 32.6667 21.7667 32.85 21.2 32.85C20.6333 32.85 20.1667 32.6667 19.8 32.3Z" fill="#51D3B7"/>
</svg>
