<svg width="22" height="22" viewBox="0 0 22 22" fill="none" xmlns="http://www.w3.org/2000/svg">
<g clip-path="url(#clip0_634_886)">
<path d="M18.3334 16.0416C18.6865 16.0418 19.026 16.1778 19.2815 16.4215C19.5371 16.6651 19.6891 16.9978 19.7061 17.3505C19.7231 17.7032 19.6037 18.0489 19.3727 18.316C19.1417 18.5831 18.8168 18.7511 18.4654 18.7852L18.3334 18.7916H3.66669C3.31357 18.7914 2.97406 18.6554 2.7185 18.4117C2.46294 18.168 2.31093 17.8354 2.29396 17.4827C2.27699 17.13 2.39636 16.7842 2.62735 16.5172C2.85833 16.2501 3.18322 16.0821 3.53469 16.048L3.66669 16.0416H18.3334ZM18.3334 9.62492C18.698 9.62492 19.0478 9.76978 19.3056 10.0276C19.5635 10.2855 19.7084 10.6352 19.7084 10.9999C19.7084 11.3646 19.5635 11.7143 19.3056 11.9722C19.0478 12.2301 18.698 12.3749 18.3334 12.3749H3.66669C3.30201 12.3749 2.95228 12.2301 2.69442 11.9722C2.43655 11.7143 2.29169 11.3646 2.29169 10.9999C2.29169 10.6352 2.43655 10.2855 2.69442 10.0276C2.95228 9.76978 3.30201 9.62492 3.66669 9.62492H18.3334ZM18.3334 3.20825C18.698 3.20825 19.0478 3.35312 19.3056 3.61098C19.5635 3.86884 19.7084 4.21858 19.7084 4.58325C19.7084 4.94792 19.5635 5.29766 19.3056 5.55552C19.0478 5.81339 18.698 5.95825 18.3334 5.95825H3.66669C3.30201 5.95825 2.95228 5.81339 2.69442 5.55552C2.43655 5.29766 2.29169 4.94792 2.29169 4.58325C2.29169 4.21858 2.43655 3.86884 2.69442 3.61098C2.95228 3.35312 3.30201 3.20825 3.66669 3.20825H18.3334Z" fill="#51D3B7"/>
</g>
<defs>
<clipPath id="clip0_634_886">
<rect width="22" height="22" fill="white"/>
</clipPath>
</defs>
</svg>
