<svg width="32" height="32" viewBox="0 0 32 32" fill="none" xmlns="http://www.w3.org/2000/svg">
<path d="M7.80002 22.8001C8.93335 21.9334 10.2 21.2499 11.6 20.7494C13 20.2499 14.4667 20.0001 16 20.0001C17.5334 20.0001 19 20.2499 20.4 20.7494C21.8 21.2499 23.0667 21.9334 24.2 22.8001C24.9778 21.889 25.5836 20.8556 26.0174 19.7001C26.4502 18.5445 26.6667 17.3112 26.6667 16.0001C26.6667 13.0445 25.628 10.5276 23.5507 8.44941C21.4725 6.37208 18.9556 5.33341 16 5.33341C13.0445 5.33341 10.528 6.37208 8.45069 8.44941C6.37246 10.5276 5.33335 13.0445 5.33335 16.0001C5.33335 17.3112 5.55024 18.5445 5.98402 19.7001C6.41691 20.8556 7.02224 21.889 7.80002 22.8001ZM16 17.3334C14.6889 17.3334 13.5831 16.8836 12.6827 15.9841C11.7831 15.0836 11.3334 13.9779 11.3334 12.6667C11.3334 11.3556 11.7831 10.2499 12.6827 9.34941C13.5831 8.44986 14.6889 8.00008 16 8.00008C17.3111 8.00008 18.4169 8.44986 19.3174 9.34941C20.2169 10.2499 20.6667 11.3556 20.6667 12.6667C20.6667 13.9779 20.2169 15.0836 19.3174 15.9841C18.4169 16.8836 17.3111 17.3334 16 17.3334ZM16 29.3334C14.1556 29.3334 12.4222 28.9832 10.8 28.2827C9.1778 27.5832 7.76669 26.6334 6.56669 25.4334C5.36669 24.2334 4.41691 22.8223 3.71735 21.2001C3.01691 19.5779 2.66669 17.8445 2.66669 16.0001C2.66669 14.1556 3.01691 12.4223 3.71735 10.8001C4.41691 9.17786 5.36669 7.76675 6.56669 6.56675C7.76669 5.36675 9.1778 4.41653 10.8 3.71608C12.4222 3.01653 14.1556 2.66675 16 2.66675C17.8445 2.66675 19.5778 3.01653 21.2 3.71608C22.8222 4.41653 24.2334 5.36675 25.4334 6.56675C26.6334 7.76675 27.5831 9.17786 28.2827 10.8001C28.9831 12.4223 29.3334 14.1556 29.3334 16.0001C29.3334 17.8445 28.9831 19.5779 28.2827 21.2001C27.5831 22.8223 26.6334 24.2334 25.4334 25.4334C24.2334 26.6334 22.8222 27.5832 21.2 28.2827C19.5778 28.9832 17.8445 29.3334 16 29.3334Z" fill="#51D3B7"/>
</svg>
